PathFileType	4	(X/Y/Z)	AB08\squats_1.trc
DataRate	CameraRate	NumFrames	NumMarkers	Units	OrigDataRate	OrigDataStartFrame	OrigNumFrames
200.000000	200.000000	4	35	mm	200.000000	0	317
Frame#	Time	C7			LSHO			STRN			LASI			RASI			RPSI			LGTR			RGTR			LTHC			LTHL			LTHR			LKNE			LMKNE			LSHC			LSHL			LSHR			LANK			LMANK			LMT1			LMT5			LCAL			RTHC			RTHL			RTHR			RKNE			RMKNE			RSHC			RSHL			RSHR			RANK			RMANK			RMT1			RMT5			RCAL			LPSI			
		X1	Y1	Z1	X2	Y2	Z2	X3	Y3	Z3	X4	Y4	Z4	X5	Y5	Z5	X6	Y6	Z6	X7	Y7	Z7	X8	Y8	Z8	X9	Y9	Z9	X10	Y10	Z10	X11	Y11	Z11	X12	Y12	Z12	X13	Y13	Z13	X14	Y14	Z14	X15	Y15	Z15	X16	Y16	Z16	X17	Y17	Z17	X18	Y18	Z18	X19	Y19	Z19	X20	Y20	Z20	X21	Y21	Z21	X22	Y22	Z22	X23	Y23	Z23	X24	Y24	Z24	X25	Y25	Z25	X26	Y26	Z26	X27	Y27	Z27	X28	Y28	Z28	X29	Y29	Z29	X30	Y30	Z30	X31	Y31	Z31	X32	Y32	Z32	X33	Y33	Z33	X34	Y34	Z34	X35	Y35	Z35	

1	30.28	-3399.158464632776	1515.279360794372	2519.596978725271	-3489.641195489311	1478.722250406227	2677.967090076599	-3569.42472937899	1234.04751320886	2533.240487485731	-3515.344929726691	980.9370893954124	2628.39733463795	-3512.767366841331	978.7916783482192	2402.091071169314	-3287.305691554461	1005.905436234751	2463.470128644869	-3390.009285975858	946.8233117577813	2716.222257061975	-3435.828773490966	923.8987720692513	2325.734997280355	-3533.267631363168	738.3965149084893	2711.793886289733	-3351.569079543704	681.2202613589317	2685.240174427449	-3435.098713795439	603.4926342446639	2734.139601090287	-3414.906332120711	485.7502619459933	2733.550380850176	-3460.655414209033	440.1123145744348	2632.053382468447	-3334.192471102593	420.8662747266143	2695.913227154897	-3443.838835216585	339.9743289519006	2659.505115458103	-3361.648957017308	252.1397362717658	2772.067425251606	-3347.467448383848	95.00734619965861	2770.889120985607	-3377.910822633937	102.3506135527033	2678.023309715278	-3501.138116603736	54.46972722264838	2708.846990132383	-3473.503455383675	50.16599375811901	2809.143385951507	-3284.542525821018	81.53400507805345	2715.177660093927	-3461.565393041441	664.3654691920572	2300.162144719119	-3357.972772641249	702.660190221942	2373.921700987837	-3564.736582092818	730.8960524770636	2418.93428962623	-3479.085358453035	494.6504586376622	2307.452491574328	-3487.932451057201	458.1427087563864	2423.787561381307	-3390.761927923571	268.1571793588236	2259.021644934362	-3347.270673081479	377.0122014121483	2332.84591748975	-3494.215477477102	341.934971878667	2341.198057333778	-3371.260946387114	104.6370874822383	2257.23221855675	-3403.29484151215	111.8110173988934	2351.015022575484	-3528.596887488944	58.9932103407498	2314.650944792996	-3487.946775812366	52.34512051563082	2227.47797167734	-3299.06637017103	90.15481696297842	2308.460467426548	-3281.235345508454	1006.899392406401	2573.11653168174	
2	30.285	-3400.577624430783	1514.481408622558	2519.413184696581	-3490.846212524611	1477.499556585312	2677.823733136052	-3569.394158571749	1232.389556756888	2533.26042268256	-3514.189550619576	980.0389849873333	2628.223319296763	-3511.196942919413	977.8234783045672	2401.922070599926	-3285.841649236042	1005.266999763376	2463.736531133575	-3389.114219528295	946.243851166578	2716.402531714435	-3434.176451051918	923.1598376423361	2325.752031926237	-3533.084865476983	738.327931290526	2712.216186841154	-3351.748074093494	680.2581269324027	2685.934992666198	-3435.604261952068	603.0337684901388	2734.933738281532	-3415.972822392374	485.4201141833419	2734.429128112066	-3461.906180252478	439.8503373656199	2632.998862302612	-3335.224193574808	420.7608079414311	2696.683490053233	-3444.689111765175	339.7270301186487	2660.22990164475	-3362.155894436094	251.9518798868434	2772.527775110178	-3347.499959576383	94.91550812630675	2771.013698421599	-3377.950041516091	102.3866930828399	2678.107836863014	-3501.1451068343	54.47034048075039	2708.900253686776	-3473.423823127445	50.10226996954529	2809.168357693708	-3284.544713894607	81.52271134762631	2715.17046785041	-3461.05265553236	663.7722712667663	2299.516236009956	-3357.391130121313	701.3958748333283	2373.734543268444	-3564.265463716066	730.7777032185496	2417.906797243596	-3479.73002397747	494.2740932004376	2306.554582784736	-3489.024823271208	457.8624489626666	2422.882510217813	-3390.920052508606	267.9352475268948	2258.723146882422	-3347.914358914716	376.9156133457853	2332.489445922104	-3494.795222907615	341.5405251064247	2340.514454054906	-3371.227518576779	104.5017292028986	2257.091698312461	-3403.317967845725	111.810536962533	2350.900694878108	-3528.505670115102	59.09483267615331	2314.61547423717	-3487.884938036693	52.35521930921816	2227.399032809103	-3299.006213424736	90.01717680937975	2308.48342311961	-3279.936454868644	1006.254056621064	2573.431539250282	
3	30.29	-3402.002653634173	1513.680981238936	2519.23035071051	-3492.055791518576	1476.272012028231	2677.681165660462	-3569.364134793134	1230.725930744336	2533.280406119436	-3513.028298770748	979.1375332321347	2628.044996285654	-3509.624154292903	976.8543826949332	2401.749561377868	-3284.372342445077	1004.625786822129	2464.00319950624	-3388.217574959768	945.6638028827971	2716.582404684728	-3432.517697271498	922.4164972847685	2325.765633850041	-3532.901895964788	738.2580374192734	2712.634093444959	-3351.928348232703	679.2951717318026	2686.63094816511	-3436.112727704453	602.5733049662336	2735.729886528949	-3417.042232363141	485.0881257391056	2735.309842889897	-3463.158049893809	439.5884251316007	2633.944082825976	-3336.258081962214	420.6541679398346	2697.457479142688	-3445.540111805269	339.478428497187	2660.95458415152	-3362.664715912906	251.7623049018446	2772.990182554721	-3347.533394269532	94.82340612431561	2771.140214771038	-3377.987180727646	102.4233932615893	2678.196101432267	-3501.151675701229	54.4716361518411	2708.952808508414	-3473.346379483341	50.03894457926698	2809.193635134877	-3284.546290285411	81.51089660256463	2715.16726995534	-3460.535574310592	663.1773168570326	2298.869507047317	-3356.805639038762	700.1307380189667	2373.549390346405	-3563.793052940041	730.6577014203693	2416.871253294179	-3480.373374266978	493.897407552631	2305.654317474365	-3490.119426850783	457.584627850562	2421.975459102678	-3391.07767733437	267.7122583509905	2258.427000522631	-3348.558407785914	376.8196044056531	2332.130143047504	-3495.37450513056	341.1458533245504	2339.830914273909	-3371.193039713502	104.3641782997491	2256.954521378587	-3403.342467303864	111.8095482484614	2350.787789835456	-3528.416234809976	59.19834616776959	2314.576488821186	-3487.821189487457	52.36681285677967	2227.318521318417	-3298.94615747727	89.88068227497919	2308.507134719111	-3278.634661087524	1005.608397251721	2573.747243087163	
4	30.295	-3403.433906696122	1512.876849996405	2519.049158290516	-3493.270553382248	1475.038094291727	2677.539677865902	-3569.33510239828	1229.056484815082	2533.299677915904	-3511.861749119495	978.2314995011118	2627.860162795048	-3508.051793944843	975.8844908347036	2401.571959861727	-3282.899902154707	1003.983238859568	2464.26780773593	-3387.319592558707	945.0840626168966	2716.760337954663	-3430.853909239295	921.6681478773638	2325.774095701189	-3532.716721240393	738.1859481854409	2713.045149351298	-3352.108021718803	678.3334042220298	2687.324690039566	-3436.62138950024	602.1119079478566	2736.524748083342	-3418.111194234337	484.7551241609935	2736.189022771734	-3464.405417810917	439.3274913894508	2634.885278332125	-3337.290028173099	420.5472665668922	2698.232245989602	-3446.389203325575	339.2295515052701	2661.675770927308	-3363.173624143093	251.5718629634139	2773.452937806494	-3347.567980784466	94.73174462047311	2771.268463170843	-3378.021999366198	102.4609695186757	2678.288619440318	-3501.157523028419	54.4742121511055	2709.004354875771	-3473.272089905191	49.97651009079469	2809.219416558843	-3284.54714200994	81.49868562052116	2715.169048560411	-3460.013417280063	662.5807663249306	2298.223646281362	-3356.214869178327	698.8678497464742	2373.364804256963	-3563.318296541791	730.535131705625	2415.829777922845	-3481.011999556163	493.521056462625	2304.754056904907	-3491.210861579609	457.310680475903	2421.068668847387	-3391.234156071873	267.4884769009718	2258.134511955946	-3349.199391626259	376.7246565238999	2331.768408083788	-3495.951107946313	340.7523910975404	2339.1494688452	-3371.156900654604	104.2246809903466	2256.822265959793	-3403.368466093245	111.8075350084085	2350.67731356451	-3528.328986806936	59.30373773230281	2314.531569990766	-3487.754451057985	52.38055586519545	2227.235570121954	-3298.886567389354	89.74614982870548	2308.532670730717	-3277.33211154121	1004.964703509727	2574.06145890206	
